<svg width="150" height="150" viewBox="0 0 150 150" fill="none" xmlns="http://www.w3.org/2000/svg">
<rect width="150" height="150" fill="black"/>
<path d="M65.5714 100.164V99.5191C65.6429 92.6716 66.3571 87.2223 67.7143 83.1711C69.0714 79.12 71 75.8396 73.5 73.3301C76 70.8205 79 68.5081 82.5 66.3929C84.6071 65.1023 86.5 63.5786 88.1786 61.8219C89.8571 60.0294 91.1786 57.968 92.1429 55.6377C93.1429 53.3074 93.6429 50.7261 93.6429 47.8939C93.6429 44.3805 92.8214 41.3332 91.1786 38.7519C89.5357 36.1706 87.3393 34.1809 84.5893 32.7827C81.8393 31.3846 78.7857 30.6855 75.4286 30.6855C72.5 30.6855 69.6786 31.2949 66.9643 32.5139C64.25 33.7328 61.9821 35.6508 60.1607 38.2679C58.3393 40.885 57.2857 44.3088 57 48.5392H43.5C43.7857 42.4445 45.3571 37.2283 48.2143 32.8903C51.1071 28.5523 54.9107 25.2361 59.625 22.9417C64.375 20.6472 69.6429 19.5 75.4286 19.5C81.7143 19.5 87.1786 20.7548 91.8214 23.2643C96.5 25.7739 100.107 29.2156 102.643 33.5894C105.214 37.9632 106.5 42.9465 106.5 48.5392C106.5 52.4828 105.893 56.05 104.679 59.2407C103.5 62.4314 101.786 65.2815 99.5357 67.7911C97.3214 70.3007 94.6429 72.5234 91.5 74.4594C88.3571 76.4312 85.8393 78.5105 83.9464 80.6974C82.0536 82.8485 80.6786 85.4118 79.8214 88.3874C78.9643 91.363 78.5 95.0736 78.4286 99.5191V100.164H65.5714ZM72.4286 132C69.7857 132 67.5179 131.05 65.625 129.15C63.7321 127.25 62.7857 124.973 62.7857 122.32C62.7857 119.667 63.7321 117.391 65.625 115.491C67.5179 113.591 69.7857 112.641 72.4286 112.641C75.0714 112.641 77.3393 113.591 79.2321 115.491C81.125 117.391 82.0714 119.667 82.0714 122.32C82.0714 124.077 81.625 125.69 80.7321 127.16C79.875 128.63 78.7143 129.813 77.25 130.709C75.8214 131.57 74.2143 132 72.4286 132Z" fill="white"/>
</svg>
