<svg width="52" height="52" viewBox="0 0 52 52" fill="none" xmlns="http://www.w3.org/2000/svg">
<path d="M23.8333 39H28.1666V34.6667H23.8333V39ZM25.9999 4.33337C23.1546 4.33337 20.3372 4.8938 17.7084 5.98265C15.0797 7.0715 12.6912 8.66746 10.6793 10.6794C6.61598 14.7427 4.33325 20.2537 4.33325 26C4.33325 31.7464 6.61598 37.2574 10.6793 41.3207C12.6912 43.3326 15.0797 44.9286 17.7084 46.0174C20.3372 47.1063 23.1546 47.6667 25.9999 47.6667C31.7463 47.6667 37.2573 45.384 41.3206 41.3207C45.3839 37.2574 47.6666 31.7464 47.6666 26C47.6666 23.1547 47.1062 20.3373 46.0173 17.7086C44.9285 15.0798 43.3325 12.6913 41.3206 10.6794C39.3086 8.66746 36.9201 7.0715 34.2914 5.98265C31.6627 4.8938 28.8452 4.33337 25.9999 4.33337ZM25.9999 43.3334C16.4449 43.3334 8.66658 35.555 8.66658 26C8.66658 16.445 16.4449 8.66671 25.9999 8.66671C35.5549 8.66671 43.3332 16.445 43.3332 26C43.3332 35.555 35.5549 43.3334 25.9999 43.3334ZM25.9999 13C23.7014 13 21.497 13.9131 19.8717 15.5384C18.2463 17.1638 17.3333 19.3682 17.3333 21.6667H21.6666C21.6666 20.5174 22.1231 19.4152 22.9358 18.6026C23.7484 17.7899 24.8506 17.3334 25.9999 17.3334C27.1492 17.3334 28.2514 17.7899 29.064 18.6026C29.8767 19.4152 30.3333 20.5174 30.3333 21.6667C30.3333 26 23.8333 25.4584 23.8333 32.5H28.1666C28.1666 27.625 34.6666 27.0834 34.6666 21.6667C34.6666 19.3682 33.7535 17.1638 32.1282 15.5384C30.5029 13.9131 28.2985 13 25.9999 13Z" fill="black"/>
</svg>
